<svg width="52" height="52" viewBox="0 0 52 52" fill="none" xmlns="http://www.w3.org/2000/svg">
<g id="24 / symbols / github">
<path id="icon" fill-rule="evenodd" clip-rule="evenodd" d="M21.704 43.3411C21.7153 43.6073 21.6865 43.867 21.6305 44.1299C21.532 44.5919 21.3418 45.0807 21.0726 45.5323C20.3073 46.8162 19.0072 47.6729 17.3333 47.6729C13.3902 47.6729 11.8426 45.7385 9.90497 40.8943C8.59264 37.6135 7.97355 36.8396 6.5 36.8396L6.5 32.5063C10.4431 32.5063 11.9907 34.4407 13.9284 39.2849C15.2407 42.5657 15.8598 43.3396 17.3333 43.3396C17.3333 42.7109 17.3247 42.154 17.3066 41.3998C17.2641 39.6323 17.2593 39.2715 17.3364 38.7989C17.3672 37.7674 17.6335 37.0355 18.1675 36.309C13.3319 35.2564 10.0705 33.0824 8.19861 29.5563L7.4974 27.9073C6.81426 25.944 6.5 23.7196 6.5 21.1505C6.5 18.1918 7.40208 15.5464 9.08704 13.335C8.56142 11.2331 8.63341 8.6649 9.794 5.76456L10.1732 4.81684L11.1455 4.50585C11.2757 4.46421 11.4339 4.4266 11.6198 4.39742C13.513 4.10029 16.2069 4.80922 19.7287 7.06508C21.8048 6.58381 23.9912 6.34083 26.1923 6.34083C28.1594 6.34083 30.1155 6.53913 31.9835 6.93009C35.41 4.78437 38.0299 4.11138 39.8721 4.39781C40.0559 4.42638 40.2125 4.46326 40.3416 4.5042L41.3199 4.81444L41.6996 5.76793C42.7149 8.31753 42.8891 10.6672 42.5197 12.7232C44.4567 15.0474 45.5 17.9048 45.5 21.1505C45.5 23.8869 45.304 25.9445 44.7404 27.9462L44.1456 29.5785C42.5886 33.1009 39.1548 35.2992 33.8597 36.3463C34.41 37.1083 34.6667 37.882 34.6667 39.0063V41.1729C34.6667 42.2229 34.6667 42.2552 34.6643 43.3396C34.6692 43.4175 34.6757 43.4556 34.6828 43.4794C34.681 43.48 34.6667 47.6729 34.6667 47.6729C32.8211 47.6729 31.4489 46.7729 30.774 45.3531C30.4241 44.617 30.3195 43.9142 30.3333 43.3088V39.0063C30.3333 38.8246 30.327 38.8141 29.8846 38.3717C28.702 37.1891 28.1667 36.2968 28.1667 34.6729V32.713L30.1168 32.5171C35.9219 31.9341 39.0792 30.322 40.126 27.9669L40.6152 26.6296C41.0044 25.2312 41.1667 23.5283 41.1667 21.1505C41.1667 18.624 40.2846 16.5369 38.6165 14.8694L37.6996 13.9529L38.0738 12.7117C38.4063 11.6089 38.4853 10.3041 38.1336 8.81586C38.0751 8.83067 38.0144 8.84681 37.9513 8.86436C36.7912 9.18735 35.3427 9.88038 33.5973 11.0471L32.8012 11.5792L31.8718 11.3488C30.0742 10.903 28.1425 10.6742 26.1923 10.6742C24.0237 10.6742 21.88 10.9501 19.8997 11.49L18.9332 11.7534L18.1064 11.1878C16.3012 9.95288 14.8015 9.21845 13.5989 8.87538C13.513 8.85087 13.4313 8.82896 13.3535 8.80942C12.934 10.5319 13.0999 11.947 13.5248 13.0089L14.0343 14.2822L13.1016 15.2875C11.6153 16.8895 10.8333 18.839 10.8333 21.1505C10.8333 23.2669 11.0811 25.0205 11.5351 26.3414L12.1021 27.6835C13.5194 30.3432 16.5299 31.9432 21.8976 32.5186L23.8333 32.7261V34.6729C23.8333 36.2968 23.298 37.1891 22.1154 38.3717C21.673 38.8141 21.6667 38.8246 21.6667 39.0063L21.6293 39.4068C21.6046 39.5382 21.6046 39.8774 21.6387 41.2958C21.6544 41.9481 21.6633 42.4644 21.6659 43.004C21.6918 43.1157 21.6957 43.1877 21.704 43.3411Z" fill="#C08CFF"/>
</g>
</svg>
