<svg width="52" height="52" viewBox="0 0 52 52" fill="none" xmlns="http://www.w3.org/2000/svg">
<g id="24 / symbols / linkedin">
<path id="icon" fill-rule="evenodd" clip-rule="evenodd" d="M8.66671 4.33325H43.3334C45.7266 4.33325 47.6667 6.27335 47.6667 8.66659V43.3332C47.6667 45.7265 45.7266 47.6666 43.3334 47.6666H8.66671C6.27347 47.6666 4.33337 45.7265 4.33337 43.3332V8.66659C4.33337 6.27335 6.27347 4.33325 8.66671 4.33325ZM8.66671 8.66659V43.3332H43.3334V8.66659H8.66671ZM28.1667 19.4999C27.0449 19.4999 25.8598 19.8428 24.813 20.4796L23.8334 19.4999H21.6667V34.6666H26V25.9999C26 24.7525 27.2869 23.8333 28.1667 23.8333H30.3334C31.2131 23.8333 32.5 24.7525 32.5 25.9999V34.6666H36.8334V25.9999C36.8334 21.9855 33.3536 19.4999 30.3334 19.4999H28.1667ZM17.3334 17.3333C18.53 17.3333 19.5 16.3632 19.5 15.1666C19.5 13.97 18.53 12.9999 17.3334 12.9999C16.1368 12.9999 15.1667 13.97 15.1667 15.1666C15.1667 16.3632 16.1368 17.3333 17.3334 17.3333ZM15.1667 19.4999V34.6666H19.5V19.4999H15.1667Z" fill="#C08CFF"/>
</g>
</svg>
