<svg width="53" height="52" viewBox="0 0 53 52" fill="none" xmlns="http://www.w3.org/2000/svg">
<g id="24 / symbols / twitter">
<path id="icon" fill-rule="evenodd" clip-rule="evenodd" d="M46.6389 9.76784L49.7632 10.1258L48.3588 12.8872C47.6739 14.2339 46.9884 15.5805 46.3022 16.9272C46.2208 17.2124 46.0778 17.4624 45.8663 17.788C45.7779 17.924 45.476 18.3567 45.4619 18.3775C45.3821 18.4948 45.3232 18.5873 45.2808 18.6614V23.8366C45.2808 37.0792 32.2185 45.4944 19.8828 45.4944C17.3586 45.4944 15.4408 45.3757 13.2448 44.9055C9.63083 44.1318 6.94136 42.5937 5.71065 39.9056L4.44359 37.138L7.52284 36.8602C10.3085 36.6089 12.7237 36.0882 14.5785 35.391C9.48645 34.5875 6.63291 32.3933 6.63291 28.2725V26.1058H8.84124C9.32644 26.1058 9.76394 26.0672 10.1551 25.9963C6.33346 23.7545 4.41932 20.1581 4.41932 15.1699C4.41891 14.9573 4.41891 14.9573 4.4176 14.7299C4.40325 12.2156 4.54089 10.8722 5.24243 9.15754C5.69203 8.05864 6.34192 7.04133 7.21657 6.1092L8.883 4.33325L10.5032 6.14993C15.8424 12.1367 21.1203 15.7688 26.5092 16.2081C26.5322 10.6839 30.7875 6.50322 36.447 6.50322C39.0854 6.50322 41.4787 7.48578 43.3594 9.25749C44.3888 9.46502 45.482 9.63528 46.6389 9.76784ZM41.7565 13.351L41.0796 13.2005L40.612 12.6972C39.4816 11.4801 38.0627 10.8366 36.447 10.8366C33.2163 10.8366 30.9257 13.0951 30.9257 16.2532C30.9257 16.7693 30.9121 17.0937 30.8466 17.5199C30.5851 19.2208 29.6127 20.5865 27.6132 20.5865C20.9925 20.5865 15.0196 17.1067 9.19522 11.1632C8.89496 12.0587 8.82434 12.9793 8.8342 14.7057C8.83553 14.9366 8.83553 14.9366 8.83599 15.1699C8.83599 19.6072 10.6683 22.0344 15.0066 23.3873L16.546 23.8674V25.4522C16.546 27.374 14.6903 29.1831 11.9751 29.9934C13.2197 30.9199 15.7653 31.4199 19.8836 31.4199H22.0919V33.5865C22.0919 36.6908 18.4564 39.1214 12.9645 40.3906C14.7556 40.929 17.1403 41.161 19.8828 41.161C30.073 41.161 40.8641 34.209 40.8641 23.8365V18.4199C40.8641 17.7834 41.0521 17.2308 41.3646 16.6564C41.4867 16.4318 41.6212 16.2176 41.7872 15.9734C41.8185 15.9274 41.9344 15.7608 42.0265 15.6276L42.2015 15.2842C42.4851 14.7277 42.7686 14.1712 43.052 13.6148C42.6116 13.5329 42.1798 13.445 41.7565 13.351Z" fill="#C08CFF"/>
</g>
</svg>
